<svg version="1.1" id="Layer_1" xmlns="http://www.w3.org/2000/svg" xmlns:xlink="http://www.w3.org/1999/xlink" x="0px" y="0px"
	 width="100%" viewBox="0 0 500 500" enable-background="new 0 0 500 500" xml:space="preserve">
<path fill="#000000" opacity="1.000000" stroke="none" 
	d="
M330.000000,501.000000 
	C220.000031,501.000000 110.500053,501.000000 1.000059,501.000000 
	C1.000039,334.333405 1.000039,167.666794 1.000020,1.000148 
	C167.666565,1.000099 334.333130,1.000099 500.999756,1.000049 
	C500.999847,167.666519 500.999847,334.333038 500.999939,500.999786 
	C444.166656,501.000000 387.333344,501.000000 330.000000,501.000000 
M141.799500,454.025024 
	C145.731476,453.941284 146.990128,456.192657 146.986435,459.753571 
	C146.978683,467.248383 146.830887,474.758728 147.313278,482.225708 
	C147.415115,483.802155 149.973740,485.219910 151.400375,486.710815 
	C152.577301,485.178314 154.123550,483.794098 154.817017,482.067444 
	C155.396118,480.625458 154.985184,478.782471 154.997772,477.116974 
	C155.044312,470.954803 154.750046,464.760010 155.345016,458.651611 
	C155.509125,456.966522 158.317062,455.538940 159.911911,453.993225 
	C160.933395,455.563812 162.764877,457.097778 162.837891,458.711273 
	C163.176376,466.192841 162.994354,473.696808 163.069077,481.192047 
	C163.097549,484.048523 163.696579,486.788635 167.353729,486.656250 
	C170.843445,486.529938 170.816833,483.708038 170.977966,481.161652 
	C171.138962,478.617462 171.350723,476.076508 171.540222,473.534119 
	C172.073776,473.557220 172.607330,473.580292 173.140884,473.603394 
	C173.785065,476.469818 174.213364,479.407410 175.128967,482.184357 
	C176.230759,485.525879 178.587036,487.965515 182.293411,486.426422 
	C185.723724,485.001953 183.865570,482.093811 183.328735,479.532135 
	C182.257233,474.418976 179.907562,469.848053 183.372269,463.988770 
	C188.420349,455.451721 181.960251,446.151337 171.938766,446.034546 
	C164.286667,445.945404 156.632629,445.980957 148.979721,446.015839 
	C141.574066,446.049591 141.179047,446.477417 140.429916,453.675690 
	C139.485229,452.538361 138.419434,451.479828 137.618179,450.249084 
	C135.038208,446.286102 131.493637,444.742279 126.935631,445.986938 
	C122.303932,447.251678 120.397652,450.596069 120.037437,455.230560 
	C119.596252,460.906830 122.920326,464.516602 126.544823,468.054474 
	C129.456314,470.896423 131.741089,473.958740 129.991135,478.964172 
	C128.897110,477.759247 128.001602,477.023651 127.425179,476.090851 
	C125.740440,473.364410 123.008949,472.943512 121.111145,474.725708 
	C119.949799,475.816223 119.767036,479.019806 120.434486,480.787354 
	C122.488289,486.226044 128.524231,488.362976 133.601685,485.955658 
	C139.306351,483.250916 141.776657,476.734192 138.526489,471.272217 
	C136.092728,467.182220 132.708618,463.660431 129.779053,459.861481 
	C128.428238,458.109802 126.565094,456.295227 129.603394,454.343781 
	C135.216019,459.773071 138.281036,459.619019 141.799500,454.025024 
M172.558426,353.997925 
	C173.576782,354.565979 174.582352,355.158447 175.615387,355.698425 
	C192.087799,364.308929 206.758789,353.437561 206.206131,337.672455 
	C205.951523,330.409180 203.593414,324.014099 201.182053,317.580505 
	C197.083099,306.644257 193.367889,295.618652 193.087875,283.892181 
	C192.700302,267.661224 197.427032,252.195526 201.277634,236.642746 
	C204.691925,222.852295 203.752930,209.698990 198.433701,196.294525 
	C194.394257,186.115173 186.287842,182.780548 177.464340,182.242065 
	C167.553085,181.637207 157.354340,180.538147 147.384399,184.336777 
	C138.496902,187.722992 131.196945,192.354004 126.335823,200.703003 
	C121.792786,208.505661 119.275154,216.850464 119.605225,225.802979 
	C120.214874,242.338379 120.515968,258.940216 122.378738,275.351715 
	C123.349121,283.901031 126.781715,292.349854 130.133636,300.415344 
	C139.089813,321.965973 151.711304,340.838593 172.558426,353.997925 
M306.732361,356.994049 
	C315.949493,361.031342 324.000610,357.829132 331.594482,352.744873 
	C342.031525,345.757019 351.220734,337.314819 357.588104,326.436066 
	C363.867767,315.707245 370.225525,304.856598 374.827606,293.369751 
	C378.143799,285.092407 379.219177,275.750641 380.247620,266.763885 
	C381.657196,254.446625 382.463837,242.026703 382.807281,229.630783 
	C383.138489,217.678192 380.337433,206.401321 373.032349,196.518631 
	C366.488281,187.665405 357.031830,183.734650 346.867371,182.094955 
	C339.906342,180.972031 332.478699,181.326675 325.465698,182.385544 
	C319.774597,183.244827 312.918549,184.705032 309.242584,188.487305 
	C304.658630,193.203781 301.794464,200.296753 299.982391,206.859146 
	C295.887848,221.687424 300.789429,236.039246 303.918396,250.443130 
	C305.915039,259.634338 307.932220,268.893341 308.858124,278.229309 
	C310.613403,295.928223 302.727814,311.597992 297.313232,327.768097 
	C293.980255,337.721619 295.521027,351.628265 306.732361,356.994049 
M166.399918,416.989044 
	C168.635284,417.576233 170.840912,418.494751 173.110687,418.698517 
	C192.274567,420.418793 210.861008,417.298279 229.247345,412.082397 
	C243.451965,408.052856 257.834320,408.288391 272.141693,411.715393 
	C281.641785,413.990936 290.982147,417.926331 300.569305,418.591248 
	C312.226959,419.399780 324.182404,418.333771 335.801239,416.647278 
	C349.182037,414.705048 363.604706,398.264099 365.028992,385.033722 
	C365.124481,384.147095 364.420380,383.174377 363.776825,381.367462 
	C361.119049,386.337463 359.466888,390.767029 356.705750,394.339478 
	C348.373169,405.120636 337.349121,410.319733 323.462708,410.117126 
	C310.837067,409.932922 298.754669,407.350739 286.696869,404.087646 
	C277.557068,401.614227 268.462799,398.693024 259.151276,397.197388 
	C244.289093,394.810242 230.090195,399.503448 216.082184,403.544525 
	C203.561295,407.156677 191.227768,410.667175 177.972992,410.092957 
	C166.746033,409.606567 156.578094,407.033630 149.066818,398.143494 
	C146.006546,394.521454 143.624359,390.320862 140.996964,386.341736 
	C140.099152,384.981995 139.394684,383.494629 138.049332,381.069611 
	C136.425003,394.470917 147.556061,410.773224 166.399918,416.989044 
M200.090714,468.726318 
	C203.851379,465.482758 203.478821,464.026001 199.075272,461.834015 
	C197.484451,461.042145 196.547318,458.937012 195.311890,457.431152 
	C196.894501,456.298645 198.435776,455.099640 200.084610,454.073578 
	C200.588089,453.760345 201.606735,454.173859 202.011063,453.820984 
	C203.349609,452.652740 205.505692,451.262390 205.474823,450.003204 
	C205.442657,448.691101 203.398987,446.605713 201.948257,446.321655 
	C198.895813,445.723907 195.655579,446.103180 192.493088,446.044769 
	C188.744827,445.975525 187.015839,447.807190 187.030273,451.534088 
	C187.068329,461.360504 187.079971,471.187408 187.025589,481.013672 
	C187.002182,485.243896 189.076950,487.140808 193.187820,486.958618 
	C197.502853,486.767426 201.890640,485.915253 206.109268,486.445221 
	C211.159241,487.079620 214.669891,486.666077 215.521744,480.765869 
	C215.640778,479.941406 217.178482,478.656464 217.918655,478.746185 
	C218.971191,478.873810 220.064331,479.938812 220.816238,480.865997 
	C221.405228,481.592194 221.229813,483.019287 221.875244,483.601776 
	C223.198761,484.796204 224.840500,486.346649 226.360489,486.356720 
	C227.317062,486.363068 229.112030,483.832550 229.098434,482.454224 
	C229.061203,478.681915 228.380722,474.897583 227.744888,471.153687 
	C226.666138,464.802002 224.833481,458.511627 224.468323,452.129639 
	C224.235886,448.066956 223.263519,446.286285 219.284576,446.075134 
	C215.119919,445.854095 212.591141,447.482574 212.002991,451.776550 
	C211.597366,454.737854 211.099503,457.687042 210.609039,460.636017 
	C209.519073,467.189636 208.407883,473.739716 207.303223,480.303741 
	C204.522018,479.407318 202.209824,478.968079 200.210480,477.927643 
	C198.379196,476.974701 196.046417,475.677551 195.432159,473.987701 
	C194.406067,471.164856 196.385239,469.355774 200.090714,468.726318 
M248.673264,450.426300 
	C247.986176,453.936920 247.299088,457.447510 246.612000,460.958130 
	C246.160187,460.895874 245.708389,460.833649 245.256577,460.771393 
	C244.459702,457.330780 243.709106,453.878571 242.853165,450.452698 
	C241.965973,446.901764 239.479782,445.783112 236.052002,446.152405 
	C232.454208,446.540009 232.056137,449.117828 232.036865,451.944061 
	C232.006271,456.432800 231.990417,460.921875 232.007278,465.410614 
	C232.028503,471.062225 231.819870,476.737122 232.308884,482.349823 
	C232.442276,483.880951 234.724533,485.224915 236.020630,486.654755 
	C237.313354,485.219879 238.914780,483.949249 239.794830,482.294830 
	C240.425323,481.109589 240.090073,479.410553 240.120468,478.943298 
	C241.847641,481.136902 243.939606,483.793762 246.031555,486.450653 
	C247.942017,484.228210 249.852493,482.005768 251.654404,479.909576 
	C251.572006,479.743256 251.799057,480.020569 251.846649,480.325806 
	C252.287628,483.154144 251.608612,487.034119 256.209167,486.617401 
	C260.450867,486.233215 259.929443,482.550629 259.956451,479.643066 
	C260.039795,470.665985 260.195587,461.679291 259.836731,452.715820 
	C259.749237,450.530579 258.307495,447.312103 256.590332,446.522919 
	C253.687546,445.188843 250.295532,445.920776 248.673264,450.426300 
M225.002045,114.500000 
	C225.256500,122.857956 224.459396,131.294006 226.625900,139.666748 
	C229.169067,133.747314 231.049789,127.820152 231.832199,121.751389 
	C232.887833,113.563156 233.599106,105.263931 233.565521,97.015976 
	C233.499435,80.783966 233.051636,64.543533 232.291077,48.328659 
	C231.923660,40.495090 230.613220,32.693424 229.469711,24.915543 
	C229.089767,22.331141 227.898956,19.865953 227.078857,17.346266 
	C226.386597,17.437353 225.694321,17.528442 225.002060,17.619532 
	C225.002060,49.579689 225.002060,81.539841 225.002045,114.500000 
M268.660767,70.070457 
	C265.572998,90.289726 270.102600,134.689819 275.737000,139.432999 
	C277.777954,134.652756 277.507660,21.079853 275.219086,17.221680 
	C274.702423,18.252171 274.071075,19.029034 273.919128,19.890459 
	C272.657898,27.039856 271.092987,34.166294 270.384064,41.374825 
	C269.477417,50.593987 269.282501,59.883141 268.660767,70.070457 
M322.999664,476.367279 
	C323.749908,479.055237 323.949951,482.121552 325.445862,484.296692 
	C326.426056,485.721802 329.281189,485.857422 331.296600,486.570587 
	C331.661072,484.944061 332.504150,483.256378 332.305359,481.701874 
	C331.531677,475.651642 328.183868,469.967346 331.552490,463.426910 
	C332.903870,460.803162 332.159485,456.856079 331.712036,453.601624 
	C330.834351,447.217468 319.739288,442.996735 314.748383,447.039368 
	C313.945496,447.689697 313.232666,448.992188 313.224213,449.999451 
	C313.131134,461.124176 313.080475,472.252777 313.359344,483.371796 
	C313.387848,484.508728 315.643616,486.475220 316.843079,486.458160 
	C318.144684,486.439606 320.049103,484.784271 320.555206,483.421173 
	C321.272522,481.488983 320.863922,479.159546 321.145630,477.027527 
	C321.202454,476.597443 322.191895,476.290558 322.999664,476.367279 
M299.307800,486.821655 
	C305.995331,485.270935 308.752228,482.178101 308.919434,475.507874 
	C309.077667,469.195190 309.079895,462.872253 308.919952,456.559662 
	C308.747375,449.747986 305.041290,445.749786 299.152924,445.632965 
	C293.192871,445.514709 288.494019,449.760498 288.183777,456.222626 
	C287.865326,462.854828 287.878448,469.526154 288.195068,476.158966 
	C288.498840,482.522125 291.991028,485.842285 299.307800,486.821655 
M283.997742,466.499969 
	C283.950623,461.016571 284.109131,455.517944 283.706055,450.060852 
	C283.610046,448.760956 281.637115,447.599670 280.527466,446.374634 
	C279.400604,447.579529 277.799683,448.609100 277.272064,450.035645 
	C276.670410,451.662201 277.337036,453.726196 276.875854,455.445404 
	C276.427185,457.118011 275.249146,458.595001 274.391388,460.157867 
	C273.603119,458.521942 272.584137,456.950989 272.099030,455.229645 
	C271.706024,453.835052 272.440399,451.995819 271.805023,450.826324 
	C270.860748,449.088348 269.149048,447.767303 267.763977,446.268799 
	C266.536682,447.757874 264.290558,449.217316 264.246246,450.740814 
	C263.941864,461.201233 263.925323,471.681152 264.293518,482.137970 
	C264.348663,483.703796 266.903046,485.181610 268.301239,486.700165 
	C269.507690,485.203247 271.352234,483.864075 271.770508,482.172302 
	C272.392395,479.656891 271.741577,476.850922 272.147919,474.249084 
	C272.390411,472.696136 273.617828,471.296997 274.402527,469.828705 
	C275.249725,471.230652 276.598999,472.553467 276.835297,474.051758 
	C277.271210,476.816040 276.674622,479.764587 277.255707,482.476196 
	C277.587463,484.024323 279.395020,485.256165 280.538055,486.630402 
	C281.658386,485.238831 283.615906,483.920990 283.746155,482.442200 
	C284.182037,477.492279 283.964813,472.484863 283.997742,466.499969 
M358.004089,455.585632 
	C358.003906,462.234772 358.001007,468.883942 358.004150,475.533081 
	C358.009583,487.077393 358.579376,487.612000 370.165619,486.973358 
	C370.663391,486.945953 371.161285,486.918671 371.658539,486.883514 
	C374.789551,486.662109 376.402985,484.684479 375.734375,481.904358 
	C375.365051,480.368805 373.452759,478.534180 371.887726,478.105316 
	C369.190125,477.366028 366.552673,477.120361 366.255920,473.646027 
	C365.946655,470.025299 368.464966,469.505005 371.237762,468.731354 
	C372.589325,468.354218 374.099426,466.589447 374.409851,465.200653 
	C374.584534,464.419281 372.523407,463.049957 371.346008,462.098297 
	C370.881348,461.722717 369.886353,461.967834 369.470825,461.573822 
	C368.354462,460.515411 366.487762,459.123260 366.639221,458.124451 
	C366.850464,456.731415 368.449371,455.320801 369.786835,454.401093 
	C370.795624,453.707397 372.427246,453.993225 373.603180,453.453918 
	C376.257385,452.236603 376.715240,447.610718 374.161194,447.104950 
	C369.727814,446.226959 364.913574,446.057281 360.523224,446.925873 
	C359.227295,447.182281 358.819946,451.930237 358.004089,455.585632 
M342.785461,445.692078 
	C334.441803,448.313568 332.857849,457.433990 338.048676,463.731903 
	C340.265564,466.421570 342.744751,468.893646 345.065155,471.499847 
	C347.062164,473.742828 348.118317,476.080963 345.302246,479.175568 
	C344.425079,477.744751 344.011169,476.248077 343.052765,475.695282 
	C341.547546,474.827057 339.360077,473.796326 338.045807,474.315002 
	C336.689941,474.850067 334.863464,477.973480 335.265869,478.548309 
	C337.346313,481.520172 339.614380,485.040497 342.696167,486.457336 
	C346.443970,488.180420 350.712372,486.625275 353.153625,482.815948 
	C355.217285,479.595795 358.360657,476.292542 354.925049,472.081299 
	C351.883026,468.352509 348.768341,464.682648 345.749725,460.935242 
	C344.155182,458.955780 342.095490,456.931915 345.939728,453.124146 
	C346.328827,454.191772 346.405853,455.210022 346.954437,455.741699 
	C348.128448,456.879456 349.546295,457.765594 350.864319,458.754852 
	C351.850616,456.832672 353.625305,454.927185 353.666412,452.984985 
	C353.765656,448.295288 349.200470,445.226440 342.785461,445.692078 
z"/>
<path fill="#201A02" opacity="1.000000" stroke="none" 
	d="
M172.230499,353.834015 
	C151.711304,340.838593 139.089813,321.965973 130.133636,300.415344 
	C126.781715,292.349854 123.349121,283.901031 122.378738,275.351715 
	C120.515968,258.940216 120.214874,242.338379 119.605225,225.802979 
	C119.275154,216.850464 121.792786,208.505661 126.335823,200.703003 
	C131.196945,192.354004 138.496902,187.722992 147.384399,184.336777 
	C157.354340,180.538147 167.553085,181.637207 177.464340,182.242065 
	C186.287842,182.780548 194.394257,186.115173 198.433701,196.294525 
	C203.752930,209.698990 204.691925,222.852295 201.277634,236.642746 
	C197.427032,252.195526 192.700302,267.661224 193.087875,283.892181 
	C193.367889,295.618652 197.083099,306.644257 201.182053,317.580505 
	C203.593414,324.014099 205.951523,330.409180 206.206131,337.672455 
	C206.758789,353.437561 192.087799,364.308929 175.615387,355.698425 
	C174.582352,355.158447 173.576782,354.565979 172.230499,353.834015 
z"/>
<path fill="#201A02" opacity="1.000000" stroke="none" 
	d="
M306.404694,356.804932 
	C295.521027,351.628265 293.980255,337.721619 297.313232,327.768097 
	C302.727814,311.597992 310.613403,295.928223 308.858124,278.229309 
	C307.932220,268.893341 305.915039,259.634338 303.918396,250.443130 
	C300.789429,236.039246 295.887848,221.687424 299.982391,206.859146 
	C301.794464,200.296753 304.658630,193.203781 309.242584,188.487305 
	C312.918549,184.705032 319.774597,183.244827 325.465698,182.385544 
	C332.478699,181.326675 339.906342,180.972031 346.867371,182.094955 
	C357.031830,183.734650 366.488281,187.665405 373.032349,196.518631 
	C380.337433,206.401321 383.138489,217.678192 382.807281,229.630783 
	C382.463837,242.026703 381.657196,254.446625 380.247620,266.763885 
	C379.219177,275.750641 378.143799,285.092407 374.827606,293.369751 
	C370.225525,304.856598 363.867767,315.707245 357.588104,326.436066 
	C351.220734,337.314819 342.031525,345.757019 331.594482,352.744873 
	C324.000610,357.829132 315.949493,361.031342 306.404694,356.804932 
z"/>
<path fill="#201902" opacity="1.000000" stroke="none" 
	d="
M166.029373,416.935181 
	C147.556061,410.773224 136.425003,394.470917 138.049332,381.069611 
	C139.394684,383.494629 140.099152,384.981995 140.996964,386.341736 
	C143.624359,390.320862 146.006546,394.521454 149.066818,398.143494 
	C156.578094,407.033630 166.746033,409.606567 177.972992,410.092957 
	C191.227768,410.667175 203.561295,407.156677 216.082184,403.544525 
	C230.090195,399.503448 244.289093,394.810242 259.151276,397.197388 
	C268.462799,398.693024 277.557068,401.614227 286.696869,404.087646 
	C298.754669,407.350739 310.837067,409.932922 323.462708,410.117126 
	C337.349121,410.319733 348.373169,405.120636 356.705750,394.339478 
	C359.466888,390.767029 361.119049,386.337463 363.776825,381.367462 
	C364.420380,383.174377 365.124481,384.147095 365.028992,385.033722 
	C363.604706,398.264099 349.182037,414.705048 335.801239,416.647278 
	C324.182404,418.333771 312.226959,419.399780 300.569305,418.591248 
	C290.982147,417.926331 281.641785,413.990936 272.141693,411.715393 
	C257.834320,408.288391 243.451965,408.052856 229.247345,412.082397 
	C210.861008,417.298279 192.274567,420.418793 173.110687,418.698517 
	C170.840912,418.494751 168.635284,417.576233 166.029373,416.935181 
z"/>
<path fill="#211A02" opacity="1.000000" stroke="none" 
	d="
M199.720047,468.822144 
	C196.385239,469.355774 194.406067,471.164856 195.432159,473.987701 
	C196.046417,475.677551 198.379196,476.974701 200.210480,477.927643 
	C202.209824,478.968079 204.522018,479.407318 207.303223,480.303741 
	C208.407883,473.739716 209.519073,467.189636 210.609039,460.636017 
	C211.099503,457.687042 211.597366,454.737854 212.002991,451.776550 
	C212.591141,447.482574 215.119919,445.854095 219.284576,446.075134 
	C223.263519,446.286285 224.235886,448.066956 224.468323,452.129639 
	C224.833481,458.511627 226.666138,464.802002 227.744888,471.153687 
	C228.380722,474.897583 229.061203,478.681915 229.098434,482.454224 
	C229.112030,483.832550 227.317062,486.363068 226.360489,486.356720 
	C224.840500,486.346649 223.198761,484.796204 221.875244,483.601776 
	C221.229813,483.019287 221.405228,481.592194 220.816238,480.865997 
	C220.064331,479.938812 218.971191,478.873810 217.918655,478.746185 
	C217.178482,478.656464 215.640778,479.941406 215.521744,480.765869 
	C214.669891,486.666077 211.159241,487.079620 206.109268,486.445221 
	C201.890640,485.915253 197.502853,486.767426 193.187820,486.958618 
	C189.076950,487.140808 187.002182,485.243896 187.025589,481.013672 
	C187.079971,471.187408 187.068329,461.360504 187.030273,451.534088 
	C187.015839,447.807190 188.744827,445.975525 192.493088,446.044769 
	C195.655579,446.103180 198.895813,445.723907 201.948257,446.321655 
	C203.398987,446.605713 205.442657,448.691101 205.474823,450.003204 
	C205.505692,451.262390 203.349609,452.652740 202.011063,453.820984 
	C201.606735,454.173859 200.588089,453.760345 200.084610,454.073578 
	C198.435776,455.099640 196.894501,456.298645 195.311890,457.431152 
	C196.547318,458.937012 197.484451,461.042145 199.075272,461.834015 
	C203.478821,464.026001 203.851379,465.482758 199.720047,468.822144 
z"/>
<path fill="#211A02" opacity="1.000000" stroke="none" 
	d="
M141.009781,454.014526 
	C141.179047,446.477417 141.574066,446.049591 148.979721,446.015839 
	C156.632629,445.980957 164.286667,445.945404 171.938766,446.034546 
	C181.960251,446.151337 188.420349,455.451721 183.372269,463.988770 
	C179.907562,469.848053 182.257233,474.418976 183.328735,479.532135 
	C183.865570,482.093811 185.723724,485.001953 182.293411,486.426422 
	C178.587036,487.965515 176.230759,485.525879 175.128967,482.184357 
	C174.213364,479.407410 173.785065,476.469818 173.140884,473.603394 
	C172.607330,473.580292 172.073776,473.557220 171.540222,473.534119 
	C171.350723,476.076508 171.138962,478.617462 170.977966,481.161652 
	C170.816833,483.708038 170.843445,486.529938 167.353729,486.656250 
	C163.696579,486.788635 163.097549,484.048523 163.069077,481.192047 
	C162.994354,473.696808 163.176376,466.192841 162.837891,458.711273 
	C162.764877,457.097778 160.933395,455.563812 159.911911,453.993225 
	C158.317062,455.538940 155.509125,456.966522 155.345016,458.651611 
	C154.750046,464.760010 155.044312,470.954803 154.997772,477.116974 
	C154.985184,478.782471 155.396118,480.625458 154.817017,482.067444 
	C154.123550,483.794098 152.577301,485.178314 151.400391,486.710815 
	C149.973740,485.219910 147.415115,483.802155 147.313278,482.225708 
	C146.830887,474.758728 146.978683,467.248383 146.986435,459.753571 
	C146.990128,456.192657 145.731476,453.941284 141.399979,454.013000 
	C141.000458,454.001007 141.009781,454.014526 141.009781,454.014526 
M173.931229,456.843292 
	C173.214645,456.590881 172.498047,456.338440 171.781464,456.086029 
	C171.781464,458.070496 171.781464,460.054932 171.781464,462.039398 
	C172.403931,462.032654 173.026398,462.025909 173.648865,462.019165 
	C173.745651,460.485291 173.842422,458.951416 173.931229,456.843292 
z"/>
<path fill="#201A02" opacity="1.000000" stroke="none" 
	d="
M248.783218,450.098389 
	C250.295532,445.920776 253.687546,445.188843 256.590332,446.522919 
	C258.307495,447.312103 259.749237,450.530579 259.836731,452.715820 
	C260.195587,461.679291 260.039795,470.665985 259.956451,479.643066 
	C259.929443,482.550629 260.450867,486.233215 256.209167,486.617401 
	C251.608612,487.034119 252.287628,483.154144 251.846649,480.325806 
	C251.799057,480.020569 251.572006,479.743256 251.654404,479.909576 
	C249.852493,482.005768 247.942017,484.228210 246.031555,486.450653 
	C243.939606,483.793762 241.847641,481.136902 240.120468,478.943298 
	C240.090073,479.410553 240.425323,481.109589 239.794830,482.294830 
	C238.914780,483.949249 237.313354,485.219879 236.020630,486.654755 
	C234.724533,485.224915 232.442276,483.880951 232.308884,482.349823 
	C231.819870,476.737122 232.028503,471.062225 232.007278,465.410614 
	C231.990417,460.921875 232.006271,456.432800 232.036865,451.944061 
	C232.056137,449.117828 232.454208,446.540009 236.052002,446.152405 
	C239.479782,445.783112 241.965973,446.901764 242.853165,450.452698 
	C243.709106,453.878571 244.459702,457.330780 245.256577,460.771393 
	C245.708389,460.833649 246.160187,460.895874 246.612000,460.958130 
	C247.299088,457.447510 247.986176,453.936920 248.783218,450.098389 
z"/>
<path fill="#201902" opacity="1.000000" stroke="none" 
	d="
M225.002045,114.000000 
	C225.002060,81.539841 225.002060,49.579689 225.002060,17.619532 
	C225.694321,17.528442 226.386597,17.437353 227.078857,17.346266 
	C227.898956,19.865953 229.089767,22.331141 229.469711,24.915543 
	C230.613220,32.693424 231.923660,40.495090 232.291077,48.328659 
	C233.051636,64.543533 233.499435,80.783966 233.565521,97.015976 
	C233.599106,105.263931 232.887833,113.563156 231.832199,121.751389 
	C231.049789,127.820152 229.169067,133.747314 226.625900,139.666748 
	C224.459396,131.294006 225.256500,122.857956 225.002045,114.000000 
z"/>
<path fill="#201902" opacity="1.000000" stroke="none" 
	d="
M268.720825,69.606293 
	C269.282501,59.883141 269.477417,50.593987 270.384064,41.374825 
	C271.092987,34.166294 272.657898,27.039856 273.919128,19.890459 
	C274.071075,19.029034 274.702423,18.252171 275.219086,17.221680 
	C277.507660,21.079853 277.777954,134.652756 275.737000,139.432999 
	C270.102600,134.689819 265.572998,90.289726 268.720825,69.606293 
z"/>
<path fill="#201A02" opacity="1.000000" stroke="none" 
	d="
M322.875519,476.147095 
	C322.191895,476.290558 321.202454,476.597443 321.145630,477.027527 
	C320.863922,479.159546 321.272522,481.488983 320.555206,483.421173 
	C320.049103,484.784271 318.144684,486.439606 316.843079,486.458160 
	C315.643616,486.475220 313.387848,484.508728 313.359344,483.371796 
	C313.080475,472.252777 313.131134,461.124176 313.224213,449.999451 
	C313.232666,448.992188 313.945496,447.689697 314.748383,447.039368 
	C319.739288,442.996735 330.834351,447.217468 331.712036,453.601624 
	C332.159485,456.856079 332.903870,460.803162 331.552490,463.426910 
	C328.183868,469.967346 331.531677,475.651642 332.305359,481.701874 
	C332.504150,483.256378 331.661072,484.944061 331.296570,486.570587 
	C329.281189,485.857422 326.426056,485.721802 325.445862,484.296692 
	C323.949951,482.121552 323.749908,479.055237 322.875519,476.147095 
M323.912140,460.617523 
	C323.912140,458.776184 323.912140,456.934845 323.912140,455.093506 
	C323.199890,455.167816 322.487671,455.242126 321.775421,455.316437 
	C322.193451,457.240326 318.347412,459.802765 323.912140,460.617523 
z"/>
<path fill="#201A02" opacity="1.000000" stroke="none" 
	d="
M298.909637,486.833832 
	C291.991028,485.842285 288.498840,482.522125 288.195068,476.158966 
	C287.878448,469.526154 287.865326,462.854828 288.183777,456.222626 
	C288.494019,449.760498 293.192871,445.514709 299.152924,445.632965 
	C305.041290,445.749786 308.747375,449.747986 308.919952,456.559662 
	C309.079895,462.872253 309.077667,469.195190 308.919434,475.507874 
	C308.752228,482.178101 305.995331,485.270935 298.909637,486.833832 
M300.998352,468.368927 
	C300.933960,464.881897 301.028351,461.380280 300.710541,457.916504 
	C300.612488,456.847656 299.390900,455.881897 298.683716,454.868896 
	C297.848633,455.924194 296.395935,456.921844 296.291168,458.045258 
	C295.937439,461.837433 295.737091,465.707184 296.120056,469.482178 
	C296.369537,471.941254 297.733246,474.287354 298.597778,476.684052 
	C299.397247,474.222198 300.196716,471.760376 300.998352,468.368927 
z"/>
<path fill="#201A02" opacity="1.000000" stroke="none" 
	d="
M283.997711,466.999695 
	C283.964813,472.484863 284.182037,477.492279 283.746155,482.442200 
	C283.615906,483.920990 281.658386,485.238831 280.538055,486.630402 
	C279.395020,485.256165 277.587463,484.024323 277.255707,482.476196 
	C276.674622,479.764587 277.271210,476.816040 276.835297,474.051758 
	C276.598999,472.553467 275.249725,471.230652 274.402527,469.828705 
	C273.617828,471.296997 272.390411,472.696136 272.147919,474.249084 
	C271.741577,476.850922 272.392395,479.656891 271.770508,482.172302 
	C271.352234,483.864075 269.507690,485.203247 268.301239,486.700165 
	C266.903046,485.181610 264.348663,483.703796 264.293518,482.137970 
	C263.925323,471.681152 263.941864,461.201233 264.246246,450.740814 
	C264.290558,449.217316 266.536682,447.757874 267.763977,446.268799 
	C269.149048,447.767303 270.860748,449.088348 271.805023,450.826324 
	C272.440399,451.995819 271.706024,453.835052 272.099030,455.229645 
	C272.584137,456.950989 273.603119,458.521942 274.391388,460.157867 
	C275.249146,458.595001 276.427185,457.118011 276.875854,455.445404 
	C277.337036,453.726196 276.670410,451.662201 277.272064,450.035645 
	C277.799683,448.609100 279.400604,447.579529 280.527466,446.374634 
	C281.637115,447.599670 283.610046,448.760956 283.706055,450.060852 
	C284.109131,455.517944 283.950623,461.016571 283.997711,466.999695 
z"/>
<path fill="#211A02" opacity="1.000000" stroke="none" 
	d="
M140.995483,453.995270 
	C138.281036,459.619019 135.216019,459.773071 129.603394,454.343781 
	C126.565094,456.295227 128.428238,458.109802 129.779053,459.861481 
	C132.708618,463.660431 136.092728,467.182220 138.526489,471.272217 
	C141.776657,476.734192 139.306351,483.250916 133.601685,485.955658 
	C128.524231,488.362976 122.488289,486.226044 120.434486,480.787354 
	C119.767036,479.019806 119.949799,475.816223 121.111145,474.725708 
	C123.008949,472.943512 125.740440,473.364410 127.425179,476.090851 
	C128.001602,477.023651 128.897110,477.759247 129.991135,478.964172 
	C131.741089,473.958740 129.456314,470.896423 126.544823,468.054474 
	C122.920326,464.516602 119.596252,460.906830 120.037437,455.230560 
	C120.397652,450.596069 122.303932,447.251678 126.935631,445.986938 
	C131.493637,444.742279 135.038208,446.286102 137.618179,450.249084 
	C138.419434,451.479828 139.485229,452.538361 140.719849,453.845093 
	C141.009781,454.014526 141.000458,454.001007 140.995483,453.995270 
z"/>
<path fill="#201A02" opacity="1.000000" stroke="none" 
	d="
M358.004730,455.102722 
	C358.819946,451.930237 359.227295,447.182281 360.523224,446.925873 
	C364.913574,446.057281 369.727814,446.226959 374.161194,447.104950 
	C376.715240,447.610718 376.257385,452.236603 373.603180,453.453918 
	C372.427246,453.993225 370.795624,453.707397 369.786835,454.401093 
	C368.449371,455.320801 366.850464,456.731415 366.639221,458.124451 
	C366.487762,459.123260 368.354462,460.515411 369.470825,461.573822 
	C369.886353,461.967834 370.881348,461.722717 371.346008,462.098297 
	C372.523407,463.049957 374.584534,464.419281 374.409851,465.200653 
	C374.099426,466.589447 372.589325,468.354218 371.237762,468.731354 
	C368.464966,469.505005 365.946655,470.025299 366.255920,473.646027 
	C366.552673,477.120361 369.190125,477.366028 371.887726,478.105316 
	C373.452759,478.534180 375.365051,480.368805 375.734375,481.904358 
	C376.402985,484.684479 374.789551,486.662109 371.658539,486.883514 
	C371.161285,486.918671 370.663391,486.945953 370.165619,486.973358 
	C358.579376,487.612000 358.009583,487.077393 358.004150,475.533081 
	C358.001007,468.883942 358.003906,462.234772 358.004730,455.102722 
z"/>
<path fill="#211A02" opacity="1.000000" stroke="none" 
	d="
M343.096375,445.578094 
	C349.200470,445.226440 353.765656,448.295288 353.666412,452.984985 
	C353.625305,454.927185 351.850616,456.832672 350.864319,458.754822 
	C349.546295,457.765594 348.128448,456.879456 346.954437,455.741699 
	C346.405853,455.210022 346.328827,454.191772 345.939728,453.124146 
	C342.095490,456.931915 344.155182,458.955780 345.749725,460.935242 
	C348.768341,464.682648 351.883026,468.352509 354.925049,472.081299 
	C358.360657,476.292542 355.217285,479.595795 353.153625,482.815948 
	C350.712372,486.625275 346.443970,488.180420 342.696167,486.457336 
	C339.614380,485.040497 337.346313,481.520172 335.265869,478.548309 
	C334.863464,477.973480 336.689941,474.850067 338.045807,474.315002 
	C339.360077,473.796326 341.547546,474.827057 343.052765,475.695282 
	C344.011169,476.248077 344.425079,477.744751 345.302246,479.175568 
	C348.118317,476.080963 347.062164,473.742828 345.065155,471.499847 
	C342.744751,468.893646 340.265564,466.421570 338.048676,463.731903 
	C332.857849,457.433990 334.441803,448.313568 343.096375,445.578094 
z"/>
<path fill="#000000" opacity="1.000000" stroke="none" 
	d="
M173.935211,457.130432 
	C173.842422,458.951416 173.745651,460.485291 173.648865,462.019165 
	C173.026398,462.025909 172.403931,462.032654 171.781464,462.039398 
	C171.781464,460.054932 171.781464,458.070496 171.781464,456.086029 
	C172.498047,456.338440 173.214645,456.590881 173.935211,457.130432 
z"/>
<path fill="#000000" opacity="1.000000" stroke="none" 
	d="
M323.698425,460.818726 
	C318.347412,459.802765 322.193451,457.240326 321.775421,455.316437 
	C322.487671,455.242126 323.199890,455.167816 323.912140,455.093506 
	C323.912140,456.934845 323.912140,458.776184 323.698425,460.818726 
z"/>
<path fill="#000000" opacity="1.000000" stroke="none" 
	d="
M300.997253,468.833740 
	C300.196716,471.760376 299.397247,474.222198 298.597778,476.684052 
	C297.733246,474.287354 296.369537,471.941254 296.120056,469.482178 
	C295.737091,465.707184 295.937439,461.837433 296.291168,458.045258 
	C296.395935,456.921844 297.848633,455.924194 298.683716,454.868896 
	C299.390900,455.881897 300.612488,456.847656 300.710541,457.916504 
	C301.028351,461.380280 300.933960,464.881897 300.997253,468.833740 
z"/>
</svg>